<svg id="Group_6" data-name="Group 6" xmlns="http://www.w3.org/2000/svg" xmlns:xlink="http://www.w3.org/1999/xlink" width="763" height="800" viewBox="0 0 763 800">
  <defs>
    <linearGradient id="linear-gradient" x1="0.671" y1="0.181" x2="0.06" y2="0.959" gradientUnits="objectBoundingBox">
      <stop offset="0" stop-color="#ef9f00"/>
      <stop offset="1" stop-color="#fffefc"/>
      <stop offset="1" stop-color="#fff"/>
    </linearGradient>
    <linearGradient id="linear-gradient-2" y1="0.5" x2="1" y2="0.5" gradientUnits="objectBoundingBox">
      <stop offset="0" stop-color="gray" stop-opacity="0.251"/>
      <stop offset="0.54" stop-color="gray" stop-opacity="0.122"/>
      <stop offset="1" stop-color="gray" stop-opacity="0.102"/>
    </linearGradient>
  </defs>
  <rect id="Rectangle_1" data-name="Rectangle 1" width="763" height="800" fill="url(#linear-gradient)"/>
  <g id="Group_5" data-name="Group 5" transform="translate(132 215.282)">
    <path id="Path_64" data-name="Path 64" d="M299.4,94.4c-32.012.043-62.825-9.032-92.3-19.113s-58.718-21.37-90.135-26.154C96.759,46.056,73.783,46.339,57.989,57.5c-15.2,10.741-19.606,28.518-21.73,44.941-1.6,12.355-2.334,25.323,3.649,36.625,4.154,7.846,11.263,14.312,16.274,21.79,17.49,26.012,6.972,59.241-10.026,85.857-7.97,12.488-17.306,24.458-23.332,37.661s-8.5,28.175-2.351,41.207c6.09,12.916,19.845,22.291,34.608,28.693,29.978,13.028,64.881,15.82,98.846,16.895,75.185,2.385,150.516-2.48,225.645-7.345,27.8-1.8,55.729-3.61,82.958-8.822,15.118-2.891,30.685-7.182,41.4-16.586,13.606-11.94,16.389-31.434,6.488-45.447-16.6-23.5-60.384-27.935-72.29-53.365-6.565-14-.9-30.055,7.435-43.55,17.884-28.955,48.667-54.89,49.186-87.275.355-22.239-15.653-43.935-39.562-53.6-25.062-10.124-59.232-7.52-76.791,11.349C360.343,85.97,327.663,94.368,299.4,94.4Z" transform="translate(-16.91 -47.46)" fill="#080714" opacity="0.1"/>
    <path id="Path_65" data-name="Path 65" d="M995.449,690.3s-5.263-3.473-10.479-1c0,0,1.606,3.092,8.21,2.8Z" transform="translate(-570.39 -413.92)" fill="#6c63ff"/>
    <path id="Path_66" data-name="Path 66" d="M1006.342,693.25s1.6,6.1-2.415,10.248c0,0-2.415-2.514,0-8.672Z" transform="translate(-580.615 -416.689)" fill="#6c63ff"/>
    <path id="Path_67" data-name="Path 67" d="M1010.123,674.487s-.39-5.186-12.1-3.465c0,0-.056,3.345,4.056,4.929S1008.071,676.2,1010.123,674.487Z" transform="translate(-577.852 -403.78)" fill="#6c63ff"/>
    <path id="Path_68" data-name="Path 68" d="M1023.415,679.5s4.951,1.589.535,12.574c0,0-3.268-.728-3.854-5.1S1021.248,681.093,1023.415,679.5Z" transform="translate(-590.408 -408.827)" fill="#6c63ff"/>
    <path id="Path_69" data-name="Path 69" d="M1028.333,652.008s.672-8.535-11.3-7.662c0,0-.857,7.709,9.186,9.713Z" transform="translate(-588.713 -388.692)" fill="#6c63ff"/>
    <path id="Path_70" data-name="Path 70" d="M1043.746,630.036s-1.64-9.674-13.606-6.792c0,0-.043,8.364,11.653,9.1Z" transform="translate(-596.216 -376.357)" fill="#6c63ff"/>
    <path id="Path_71" data-name="Path 71" d="M1055.914,607.041s-2.749-9.422-14.6-6.6c0,0,2.822,8.475,13.816,8.342Z" transform="translate(-602.602 -363.323)" fill="#363636"/>
    <path id="Path_72" data-name="Path 72" d="M1069.362,583.963s-2.685-9.777-14.132-6.852c0,0,3.82,9.289,13.374,8.505Z" transform="translate(-610.561 -349.975)" fill="#363636"/>
    <path id="Path_73" data-name="Path 73" d="M1079.486,559.32s-2.064-11.957-12.736-9.31c0,0,3.1,10.878,11.953,11.053Z" transform="translate(-617.147 -334.573)" fill="#363636"/>
    <path id="Path_74" data-name="Path 74" d="M1086.516,533.91s-2.479-12.051-13.276-8.565c0,0,4.231,11.392,12.509,10.214Z" transform="translate(-620.858 -320.328)" fill="#363636"/>
    <path id="Path_75" data-name="Path 75" d="M1092.6,506.261s-3.936-12.055-12.282-11.73c0,0,4.021,12.732,11.584,14.133Z" transform="translate(-624.906 -303.069)" fill="#363636"/>
    <path id="Path_76" data-name="Path 76" d="M1097.295,480.29s-4.283-14.509-11.075-13.392c0,0,2.964,11.092,10.835,15.653Z" transform="translate(-628.279 -287.239)" fill="#363636"/>
    <path id="Path_77" data-name="Path 77" d="M1099.526,453.214s-4.017-12.09-10.706-12.574c0,0,2.732,11.9,10.574,15.717Z" transform="translate(-629.766 -272.261)" fill="#363636"/>
    <path id="Path_78" data-name="Path 78" d="M1103.132,427.117s-5.006-12.1-9.422-12.377c0,0,2.175,11.918,8.993,14.364Z" transform="translate(-632.562 -257.453)" fill="#363636"/>
    <path id="Path_79" data-name="Path 79" d="M1106.983,400.115s-3.079-13.143-7.5-14.235c0,0,.6,10.754,7.058,15.22Z" transform="translate(-635.861 -240.952)" fill="#363636"/>
    <path id="Path_80" data-name="Path 80" d="M1111.792,370.877s-3.238-10.479-6.822-12.077c0,0,.707,12.355,6,14.638Z" transform="translate(-638.999 -225.469)" fill="#363636"/>
    <path id="Path_81" data-name="Path 81" d="M1120.532,341.335l.651-18.475s-6.7,13.927-1.135,21.717Z" transform="translate(-646.356 -204.921)" fill="#363636"/>
    <path id="Path_82" data-name="Path 82" d="M1132.729,304.074s4.826-13.49,6-14.244c0,0-9.465,8.754-8.539,20.013Z" transform="translate(-653.379 -186.036)" fill="#363636"/>
    <path id="Path_83" data-name="Path 83" d="M1041.61,662.134s8.488-1.109,8.235,10.886c0,0-7.67,1.251-10.175-8.672Z" transform="translate(-601.665 -398.883)" fill="#6c63ff"/>
    <path id="Path_84" data-name="Path 84" d="M1060.237,639.06s9.807-.03,8.993,12.248c0,0-8.235,1.473-10.95-9.927Z" transform="translate(-612.305 -385.706)" fill="#363636"/>
    <path id="Path_85" data-name="Path 85" d="M1074.578,617.348s8.9-4.175,14.6,6.6c0,0-8.223,3.478-15.387-4.861Z" transform="translate(-621.172 -372.837)" fill="#363636"/>
    <path id="Path_86" data-name="Path 86" d="M1087.684,592.808s9.118-4.441,14.471,6.086c0,0-9.5,3.272-15.225-4.42Z" transform="translate(-628.685 -358.73)" fill="#363636"/>
    <path id="Path_87" data-name="Path 87" d="M1095.682,567.934s8.775-8.381,15.777.094c0,0-8.964,6.9-16.18,1.773Z" transform="translate(-633.459 -342.926)" fill="#363636"/>
    <path id="Path_88" data-name="Path 88" d="M1102.657,540.59s8.826-8.565,15.773.394c0,0-9.906,7.036-16.09,1.4Z" transform="translate(-637.496 -327.295)" fill="#363636"/>
    <path id="Path_89" data-name="Path 89" d="M1106.93,509.562s6.8-10.706,14.809-8.317c0,0-7.058,11.336-14.732,10.831Z" transform="translate(-640.12 -306.713)" fill="#363636"/>
    <path id="Path_90" data-name="Path 90" d="M1111.375,482.858s6.852-13.482,13.336-11.135c0,0-4.942,10.364-13.511,13.409Z" transform="translate(-642.561 -289.876)" fill="#363636"/>
    <path id="Path_91" data-name="Path 91" d="M1111.805,455.778s7.045-10.612,13.644-9.315c0,0-5.76,10.762-14.329,12.385Z" transform="translate(-642.516 -275.527)" fill="#363636"/>
    <path id="Path_92" data-name="Path 92" d="M1114,427.081s5.46-11.91,9.9-11.991c0,0-2.621,11.824-9.529,14.013Z" transform="translate(-644.162 -257.653)" fill="#363636"/>
    <path id="Path_93" data-name="Path 93" d="M1116.5,402.385s6.068-12.06,10.629-12.085c0,0-3.1,10.312-10.428,13.143Z" transform="translate(-645.592 -243.479)" fill="#363636"/>
    <path id="Path_94" data-name="Path 94" d="M1118.63,373.929s4.54-9.978,8.3-11.109c0,0-2.27,12.163-7.8,13.756Z" transform="translate(-646.809 -227.768)" fill="#363636"/>
    <path id="Path_95" data-name="Path 95" d="M1123.412,344.516l10.145-15.456s-2.6,15.246-11.627,18.415Z" transform="translate(-648.696 -208.466)" fill="#363636"/>
    <path id="Path_96" data-name="Path 96" d="M1135.092,313.382s11.79-8.137,12.218-9.452c0,0-6,11.4-17.13,13.409Z" transform="translate(-653.413 -194.098)" fill="#363636"/>
    <path id="Path_97" data-name="Path 97" d="M1142.866,300.092s13.537-13.015,16.993-13c0,0-11.165.51-17.319,12.308Z" transform="translate(-660.48 -184.47)" fill="#363636"/>
    <path id="Path_98" data-name="Path 98" d="M1118.94,348.491l.492.064c2.544-19.91,6.253-31.691,10.441-33.134l-.163-.471C1125.27,316.492,1121.535,328.093,1118.94,348.491Z" transform="translate(-646.987 -200.399)" fill="#444053"/>
    <path id="Path_99" data-name="Path 99" d="M1110.2,438.911l.745.06c.159-1.859.278-3.76.36-5.657.711-16.479,1.811-31.614,3.259-42.959l-.428-.535c-1.452,11.37-2.865,26.959-3.576,43.464C1110.478,435.168,1110.358,437.061,1110.2,438.911Z" transform="translate(-641.99 -243.205)" fill="#444053"/>
    <path id="Path_100" data-name="Path 100" d="M976.463,592.722c.128-.056,13.246-5.914,26.86-19.884A108.017,108.017,0,0,0,1022.958,545c6.3-12.818,10.133-28.569,11.417-43.871l-.775.364c-2.891,34.346-18.526,57.815-30.959,70.6-13.482,13.846-26.453,19.644-26.582,19.7Z" transform="translate(-565.296 -306.845)" fill="#444053"/>
    <path id="Path_101" data-name="Path 101" d="M502.041,132.69H90.536a3.666,3.666,0,0,0-3.666,3.666v10.681H505.706V136.356A3.666,3.666,0,0,0,502.041,132.69Z" transform="translate(-56.909 -96.193)" fill="#363636"/>
    <path id="Path_102" data-name="Path 102" d="M86.87,166.19V406.546a7.392,7.392,0,0,0,7.392,7.392H498.315a7.392,7.392,0,0,0,7.392-7.392V166.19Z" transform="translate(-56.909 -115.346)" fill="#fff"/>
    <circle id="Ellipse_17" data-name="Ellipse 17" cx="1.713" cy="1.713" r="1.713" transform="translate(34.882 41.85)" fill="#fa5959" opacity="0.8"/>
    <circle id="Ellipse_18" data-name="Ellipse 18" cx="1.713" cy="1.713" r="1.713" transform="translate(39.593 41.85)" fill="#fed253" opacity="0.8"/>
    <circle id="Ellipse_19" data-name="Ellipse 19" cx="1.713" cy="1.713" r="1.713" transform="translate(44.303 41.85)" fill="#8ccf4d" opacity="0.8"/>
    <rect id="Rectangle_3" data-name="Rectangle 3" width="336.611" height="148.015" transform="translate(68.894 90.92)" opacity="0.05"/>
    <path id="Path_137" data-name="Path 137" d="M0,0H331.472V144.751H0Z" transform="translate(71.463 92.042)" fill="#707070"/>
    <path id="Path_104" data-name="Path 104" d="M350.756,349.38a32.976,32.976,0,1,0,32.976,32.976A32.976,32.976,0,0,0,350.756,349.38Zm5.914,33.768v15.614H345.013V383.148a9.657,9.657,0,1,1,11.657,0Z" transform="translate(-148.93 -217.084)" fill="#ef9f00" opacity="0.05"/>
    <path id="Path_105" data-name="Path 105" d="M338.178,327.38a42.4,42.4,0,1,0,42.4,42.4,42.4,42.4,0,0,0-42.4-42.4Zm7.6,43.417v20.072H330.79V370.8a12.42,12.42,0,1,1,14.989,0Z" transform="translate(-178.352 -209.505)" fill="#f0a208"/>
    <rect id="Rectangle_5" data-name="Rectangle 5" width="137.043" height="14.561" transform="translate(221.782 156.709)" fill="#fff"/>
    <path id="Path_138" data-name="Path 138" d="M0,0H29.55V14.561H0Z" transform="translate(329.275 183.261)" fill="#363636"/>
    <path id="Path_106" data-name="Path 106" d="M557.99,425.878h-2.48l2.205-2.2a.218.218,0,0,0,0-.3.214.214,0,0,0-.3,0l-2.206,2.206v-2.484a.214.214,0,0,0-.214-.214.218.218,0,0,0-.214.214v2.484l-2.2-2.218a.214.214,0,0,0-.3,0,.218.218,0,0,0,0,.3l2.206,2.2h-2.484a.218.218,0,0,0-.214.214.214.214,0,0,0,.214.214h2.484l-2.206,2.206a.218.218,0,0,0,0,.3.223.223,0,0,0,.3,0l2.2-2.206v2.48a.214.214,0,1,0,.428,0V426.6l2.206,2.206a.223.223,0,0,0,.3,0,.218.218,0,0,0,0-.3l-2.205-2.206h2.48a.208.208,0,1,0,0-.415Z" transform="translate(-322.718 -262.107)" fill="#6c63ff"/>
    <path id="Path_107" data-name="Path 107" d="M578.99,425.878h-2.48l2.206-2.2a.218.218,0,0,0,0-.3.214.214,0,0,0-.3,0l-2.206,2.206v-2.484a.214.214,0,0,0-.214-.214.218.218,0,0,0-.214.214v2.484l-2.2-2.218a.214.214,0,0,0-.3,0,.219.219,0,0,0,0,.3l2.206,2.2h-2.484a.218.218,0,0,0-.214.214.214.214,0,0,0,.214.214h2.484l-2.206,2.206a.218.218,0,0,0,0,.3.223.223,0,0,0,.3,0l2.2-2.206v2.48a.214.214,0,1,0,.428,0V426.6l2.206,2.206a.223.223,0,0,0,.3,0,.218.218,0,0,0,0-.3l-2.206-2.206h2.48a.208.208,0,1,0,0-.415Z" transform="translate(-334.724 -262.107)" fill="#6c63ff"/>
    <path id="Path_108" data-name="Path 108" d="M599.99,425.878h-2.48l2.206-2.2a.218.218,0,0,0,0-.3.214.214,0,0,0-.3,0l-2.206,2.206v-2.484a.214.214,0,0,0-.214-.214.218.218,0,0,0-.214.214v2.484l-2.2-2.218a.214.214,0,0,0-.3,0,.219.219,0,0,0,0,.3l2.206,2.2h-2.484a.218.218,0,0,0-.214.214.214.214,0,0,0,.214.214h2.484l-2.206,2.206a.218.218,0,0,0,0,.3.223.223,0,0,0,.3,0l2.2-2.206v2.48a.214.214,0,1,0,.428,0V426.6l2.206,2.206a.223.223,0,0,0,.3,0,.218.218,0,0,0,0-.3l-2.206-2.206h2.48a.208.208,0,1,0,0-.415Z" transform="translate(-346.731 -262.107)" fill="#6c63ff"/>
    <path id="Path_109" data-name="Path 109" d="M620.99,425.878h-2.48l2.206-2.2a.219.219,0,0,0,0-.3.214.214,0,0,0-.3,0l-2.205,2.206v-2.484a.214.214,0,0,0-.214-.214.218.218,0,0,0-.214.214v2.484l-2.2-2.218a.214.214,0,0,0-.3,0,.219.219,0,0,0,0,.3l2.206,2.2h-2.484a.218.218,0,0,0-.214.214.214.214,0,0,0,.214.214h2.484l-2.206,2.206a.218.218,0,0,0,0,.3.223.223,0,0,0,.3,0l2.2-2.206v2.48a.214.214,0,1,0,.428,0V426.6l2.206,2.206a.223.223,0,0,0,.3,0,.218.218,0,0,0,0-.3l-2.206-2.206h2.48a.208.208,0,1,0,0-.415Z" transform="translate(-358.737 -262.107)" fill="#6c63ff"/>
    <path id="Path_110" data-name="Path 110" d="M641.99,425.878h-2.48l2.206-2.2a.219.219,0,0,0,0-.3.214.214,0,0,0-.3,0l-2.206,2.206v-2.484a.214.214,0,0,0-.214-.214.218.218,0,0,0-.214.214v2.484l-2.2-2.218a.214.214,0,0,0-.3,0,.219.219,0,0,0,0,.3l2.206,2.2h-2.484a.218.218,0,0,0-.214.214.214.214,0,0,0,.214.214h2.484l-2.206,2.206a.219.219,0,0,0,0,.3.223.223,0,0,0,.3,0l2.2-2.206v2.48a.214.214,0,1,0,.428,0V426.6l2.206,2.206a.223.223,0,0,0,.3,0,.219.219,0,0,0,0-.3l-2.206-2.206h2.48a.208.208,0,1,0,0-.415Z" transform="translate(-370.744 -262.107)" fill="#6c63ff"/>
    <path id="Path_111" data-name="Path 111" d="M662.99,425.878h-2.48l2.206-2.2a.219.219,0,0,0,0-.3.214.214,0,0,0-.3,0l-2.206,2.206v-2.484a.214.214,0,0,0-.214-.214.218.218,0,0,0-.214.214v2.484l-2.2-2.218a.214.214,0,0,0-.3,0,.219.219,0,0,0,0,.3l2.206,2.2h-2.484a.218.218,0,0,0-.214.214.214.214,0,0,0,.214.214h2.484l-2.206,2.206a.218.218,0,0,0,0,.3.223.223,0,0,0,.3,0l2.2-2.206v2.48a.214.214,0,1,0,.428,0V426.6l2.206,2.206a.223.223,0,0,0,.3,0,.219.219,0,0,0,0-.3l-2.206-2.206h2.48a.208.208,0,1,0,0-.415Z" transform="translate(-382.75 -262.107)" fill="#6c63ff"/>
    <path id="Path_112" data-name="Path 112" d="M683.99,425.878h-2.48l2.206-2.2a.218.218,0,0,0,0-.3.214.214,0,0,0-.3,0l-2.205,2.206v-2.484a.214.214,0,0,0-.214-.214.218.218,0,0,0-.214.214v2.484l-2.2-2.218a.214.214,0,0,0-.3,0,.219.219,0,0,0,0,.3l2.206,2.2h-2.484a.218.218,0,0,0-.214.214.214.214,0,0,0,.214.214h2.484l-2.206,2.206a.218.218,0,0,0,0,.3.223.223,0,0,0,.3,0l2.2-2.206v2.48a.214.214,0,1,0,.428,0V426.6l2.206,2.206a.223.223,0,0,0,.3,0,.218.218,0,0,0,0-.3l-2.206-2.206h2.48a.208.208,0,1,0,0-.415Z" transform="translate(-394.757 -262.107)" fill="#6c63ff"/>
    <path id="Path_113" data-name="Path 113" d="M704.99,425.878h-2.48l2.206-2.2a.218.218,0,0,0,0-.3.214.214,0,0,0-.3,0l-2.206,2.206v-2.484a.214.214,0,0,0-.214-.214.218.218,0,0,0-.214.214v2.484l-2.2-2.218a.214.214,0,0,0-.3,0,.219.219,0,0,0,0,.3l2.206,2.2h-2.484a.218.218,0,0,0-.214.214.214.214,0,0,0,.214.214h2.484l-2.206,2.206a.218.218,0,0,0,0,.3.223.223,0,0,0,.3,0l2.2-2.206v2.48a.214.214,0,1,0,.428,0V426.6l2.206,2.206a.223.223,0,0,0,.3,0,.218.218,0,0,0,0-.3l-2.206-2.206h2.48a.208.208,0,1,0,0-.415Z" transform="translate(-406.764 -262.107)" fill="#6c63ff"/>
    <path id="Path_114" data-name="Path 114" d="M725.99,425.878h-2.48l2.206-2.2a.219.219,0,0,0,0-.3.214.214,0,0,0-.3,0l-2.206,2.206v-2.484a.214.214,0,0,0-.214-.214.218.218,0,0,0-.214.214v2.484l-2.2-2.218a.214.214,0,0,0-.3,0,.219.219,0,0,0,0,.3l2.206,2.2h-2.484a.218.218,0,0,0-.214.214.214.214,0,0,0,.214.214h2.484l-2.206,2.206a.218.218,0,0,0,0,.3.223.223,0,0,0,.3,0l2.2-2.206v2.48a.214.214,0,1,0,.428,0V426.6l2.206,2.206a.223.223,0,0,0,.3,0,.218.218,0,0,0,0-.3l-2.206-2.206h2.48a.208.208,0,1,0,0-.415Z" transform="translate(-418.77 -262.107)" fill="#6c63ff"/>
    <path id="Path_115" data-name="Path 115" d="M746.99,425.878h-2.48l2.206-2.2a.219.219,0,0,0,0-.3.214.214,0,0,0-.3,0l-2.206,2.206v-2.484a.214.214,0,0,0-.214-.214.218.218,0,0,0-.214.214v2.484l-2.2-2.218a.214.214,0,0,0-.3,0,.219.219,0,0,0,0,.3l2.206,2.2h-2.484a.218.218,0,0,0-.214.214.214.214,0,0,0,.214.214h2.484l-2.206,2.206a.218.218,0,0,0,0,.3.223.223,0,0,0,.3,0l2.2-2.206v2.48a.214.214,0,1,0,.428,0V426.6l2.206,2.206a.223.223,0,0,0,.3,0,.219.219,0,0,0,0-.3l-2.206-2.206h2.48a.208.208,0,1,0,0-.415Z" transform="translate(-430.777 -262.107)" fill="#6c63ff"/>
    <path id="Path_116" data-name="Path 116" d="M767.99,425.878h-2.48l2.206-2.2a.219.219,0,0,0,0-.3.214.214,0,0,0-.3,0l-2.206,2.206v-2.484a.214.214,0,0,0-.214-.214.218.218,0,0,0-.214.214v2.484l-2.2-2.218a.214.214,0,0,0-.3,0,.218.218,0,0,0,0,.3l2.206,2.2h-2.484a.218.218,0,0,0-.214.214.214.214,0,0,0,.214.214h2.484l-2.206,2.206a.218.218,0,0,0,0,.3.223.223,0,0,0,.3,0l2.2-2.206v2.48a.214.214,0,1,0,.428,0V426.6l2.206,2.206a.223.223,0,0,0,.3,0,.219.219,0,0,0,0-.3l-2.206-2.206h2.48a.208.208,0,1,0,0-.415Z" transform="translate(-442.783 -262.107)" fill="#6c63ff"/>
    <path id="Path_117" data-name="Path 117" d="M850.465,503.4a7.664,7.664,0,0,0-.193-1.537c-.385-1.448-1.255-3.2-2.685-3.636a22.546,22.546,0,0,1-4.257-1.8c-.257-4.591.8-9.289-.351-13.739a34.957,34.957,0,0,1-1.323-4.852c-.236-2.073.33-4.283-.5-6.193a6.112,6.112,0,0,0-3.619-3.126,19.281,19.281,0,0,0-4.826-.857c-2.056-.167-8.711-.955-11.032.882h0a2.428,2.428,0,0,0-.428.428h0a1.714,1.714,0,0,0-.137.223l-.021.034a1.745,1.745,0,0,0-.116.278h0a2.158,2.158,0,0,0-.073.321v.771c.03.385.086.771.086,1.152a2.483,2.483,0,0,1-.051.565,3.957,3.957,0,0,1-.711,1.388h0l-.077.111c-.047.069-.094.133-.137.2s-.077.12-.111.18-.068.1-.1.154a2.091,2.091,0,0,0-.111.218c0,.043-.047.081-.064.124a2.124,2.124,0,0,0-.128.36,2.39,2.39,0,0,0-.026,1.139,4.238,4.238,0,0,0,.587,1.349c.107.176.223.347.343.518l.3.407a9.22,9.22,0,0,0-.09,1.2A8.86,8.86,0,0,0,824,486.632a26.232,26.232,0,0,1-.055,5.435c-.039.377-.086.758-.137,1.135s-.09.625-.141.938a4.348,4.348,0,0,1-1.872-.141,8.811,8.811,0,0,0-.857-.33c-1.246-.313-2.518.929-3.752.552a.5.5,0,0,1-.056.171,1.678,1.678,0,0,0-.857-.253,3.124,3.124,0,0,1-1.859-1.066l-1.632-1.537a1.8,1.8,0,0,1-.283-.317,2.219,2.219,0,0,1-.2-.527,6.07,6.07,0,0,0-1.58-2.265,1.07,1.07,0,0,0-.467-.338.721.721,0,0,0-.214,0,1.887,1.887,0,0,0-.141-.171,4.048,4.048,0,0,0-.355-.36c-.779-.719-.857-1.336-1.533-2.141a20.578,20.578,0,0,1-1.6-2.42c-.056-.45-.133-.912-.227-1.379a17.745,17.745,0,0,0-.938-3.126l-.856-1.9-.1.1c-.621-.925-1.285-1.43-1.88-1.31-1,.206-1.49,2.141-1.332,4.672l.343,2.57a.791.791,0,0,0,.047.193,4.746,4.746,0,0,0-.094.925c0,.36.334.625.51.946a2.677,2.677,0,0,1,.428,1.46c-.021.184-.077.36-.086.54a2.077,2.077,0,0,0,.4,1.113l2.141,3.6.428.754.026.034a1.829,1.829,0,0,0,.574.66,7.846,7.846,0,0,0,.707,2.6c.073.163.154.317.24.471a15.147,15.147,0,0,0,2.021,2.625l1.019,1.143c1.006,1.122,2.013,2.248,3.1,3.285a4.158,4.158,0,0,0,1.388.972,1.572,1.572,0,0,0,1.559-.227q0,.8,0,1.593a.895.895,0,0,1,.677,1.409,35.318,35.318,0,0,1-3.169,6.707A14.278,14.278,0,0,1,816,515.45a11.946,11.946,0,0,1,1.383,1.872c.039.317.068.63.086.942.317,5.1-1.657,10.171-3.426,15.036a11.715,11.715,0,0,0-1.024,4.257,8.352,8.352,0,0,0-.959.69,6.349,6.349,0,0,1,.176,2.715,4.809,4.809,0,0,1-.355,1.713,12.038,12.038,0,0,1-.617,1.1,16.341,16.341,0,0,0-1.576,6.518c-.133,1.349.39,3-.223,4.206a17.2,17.2,0,0,0-2.141,6.587,6.6,6.6,0,0,1-.2,1.537c-.133.428-.368.792-.488,1.212a5.186,5.186,0,0,0-.086,1.713,16.394,16.394,0,0,1-.9,6.043c-.535,1.529-1.126,3.165-.707,4.737a6.677,6.677,0,0,0-1.812,3.979A6.277,6.277,0,0,1,803,581.44a5.519,5.519,0,0,1-.514,1.092,9.558,9.558,0,0,0-1.165,5.139,14.294,14.294,0,0,0-2.308,6.03c-.381,2.137-.548,4.313-1.036,6.424-.651,2.792-1.829,5.615-2.06,8.475a5.97,5.97,0,0,0-2.253,4.227,18.815,18.815,0,0,1-.989,4.826c-.351.779-.857,1.478-1.19,2.274a10.432,10.432,0,0,0-.514,1.957,7.636,7.636,0,0,0-.133,3.212,4.841,4.841,0,0,1-1.255.955c.068-.266.124-.531.171-.8-1.1,1-3.109.651-3.991,1.854a1.807,1.807,0,0,0,.428,2.48,3.425,3.425,0,0,0,.887.381c2.141.685,4.343,1.375,6.544,1.011a1.954,1.954,0,0,0,.741-.236,2.385,2.385,0,0,0,.69-.8c.33-.522.659-1.045.985-1.567a20.354,20.354,0,0,0,2.4.561c.081.685.141,1.37.171,2.056.428.086,1,.111,1.2-.287a1.041,1.041,0,0,0,.073-.475c0-.3.043-.707.068-1.118h.086a8.137,8.137,0,0,0,3.79-.766c-.458-3.794,1.054-7.5,2.364-11.092,1.383-3.777,2.57-7.623,3.764-11.469.857-2.707,1.8-5.328,2.642-8.038q1.585-5.139,3.182-10.278c.462-1.508.929-3,1.46-4.5a70.05,70.05,0,0,1,3.97-8.835c.428-.809.857-1.61,1.208-2.45.428-1.024.732-2.094,1.075-3.152a48.817,48.817,0,0,1,2.689-6.33c.03-.056.051-.107.081-.158.347,1.417.694,2.856.925,4.283a16.272,16.272,0,0,1,.073,5.293,17.459,17.459,0,0,0-.548,3.589c.064,1.674.959,3.195,1.4,4.809a18.3,18.3,0,0,1,.48,3.683c.12,1.927,1.165,4.09.428,5.876-2.291,5.657-1.182,12.047-2.488,17.987-.672,3.049-2.732,5.914-2.57,9.032q.171,3.319.582,6.621a6.3,6.3,0,0,0,.536,2.009,7.372,7.372,0,0,0,.587.959c-.188.073-.347.266-.484.672a2.642,2.642,0,0,0,.951,3,4.163,4.163,0,0,0,1.238.428,6.518,6.518,0,0,0,1.79.248,4.176,4.176,0,0,0,.561-.068,20.421,20.421,0,0,0,2.026.728,4.408,4.408,0,0,0,.056.527.655.655,0,0,0,.223.484.669.669,0,0,0,.343.06H834.7v-.582a1.914,1.914,0,0,0,1.477-.48,2.286,2.286,0,0,0,.428-.891q.951-3.225,1.889-6.454a20.632,20.632,0,0,0,.921-7.366c-.827-7.893.989-15.811.4-23.726a56.838,56.838,0,0,1,.728-14.235c.193-1.062.428-2.141.514-3.2.188-2-.043-4.013.1-6,.047-.694.141-1.383.227-2.073a99.541,99.541,0,0,0,.921-12.912,40.691,40.691,0,0,0-.266-4.283,2.446,2.446,0,0,0,1.169-.685,2.912,2.912,0,0,0,.278-1.829,13.257,13.257,0,0,1,1.152-4.377,52,52,0,0,0,1.619-6.021,21.024,21.024,0,0,0,.719-5.032q0-.257-.026-.514a1.327,1.327,0,0,0,.394-.428,2.487,2.487,0,0,0,.206-.792c.154-1.092.313-2.188.467-3.285q.171-1.178.338-2.351l1.362-9.5c.116-.826.235-1.649.351-2.471l.355-2.458c.039-.291.081-.582.111-.857C851.574,507.72,850.576,505.39,850.465,503.4ZM839.1,538.983a7.827,7.827,0,0,1-.857-3.722H838.2a1.91,1.91,0,0,0-.056-1.208c-.133-.313-.364-.578-.505-.891a3.262,3.262,0,0,1-.231-1.2,32.69,32.69,0,0,1,.612-7.769c.056-.3.116-.6.171-.9a2.237,2.237,0,0,0,.488-.381,3.471,3.471,0,0,0,.552-.857c.484-.972.925-1.961,1.332-2.968.133-.326.325-.7.655-.784-.068,2.505.188,5.062-.831,7.323a4.633,4.633,0,0,0-.428,1.156c-.094.638.171,1.285.077,1.919-.047.33-.188.634-.244.959a.938.938,0,0,0,.248.908.749.749,0,0,0,.184.094c-.026.171-.047.347-.064.514-.034.351-.051.681-.073.887a27.624,27.624,0,0,0-.116,3.152c0,1.135.043,2.27.026,3.426a2.325,2.325,0,0,1-.163.972,1.689,1.689,0,0,1-.326.428A11.129,11.129,0,0,0,839.1,538.983Z" transform="translate(-456.313 -287.534)" fill="url(#linear-gradient-2)"/>
    <ellipse id="Ellipse_20" data-name="Ellipse 20" cx="2.415" cy="6.839" rx="2.415" ry="6.839" transform="matrix(0.98, -0.201, 0.201, 0.98, 343.875, 188.842)" fill="#fbbebe"/>
    <path id="Path_118" data-name="Path 118" d="M878.222,837.489a2.593,2.593,0,0,0,.951,2.968,4.234,4.234,0,0,0,1.229.428,6.481,6.481,0,0,0,1.786.244c.741-.034,1.452-.325,2.193-.428a.343.343,0,0,1,.253.034.364.364,0,0,1,.094.3,11.314,11.314,0,0,0,.094,1.259.647.647,0,0,0,.223.484.668.668,0,0,0,.343.06h2.321a22.638,22.638,0,0,0-.664-6.056,1.353,1.353,0,0,0-.171-.428,1.417,1.417,0,0,0-.741-.428,4.139,4.139,0,0,0-1.794-.313,5.255,5.255,0,0,0-2.013.985,3.067,3.067,0,0,1-2.283.552C879.267,836.945,878.62,836.3,878.222,837.489Z" transform="translate(-509.282 -498.081)" fill="#3f3d56"/>
    <path id="Path_119" data-name="Path 119" d="M794.982,834.435a6.424,6.424,0,0,1-2.343,1.593l-.394.188a.274.274,0,0,0-.133.107.231.231,0,0,0,.043.193,2.771,2.771,0,0,0,3.143,1.143,1.666,1.666,0,0,0,.689-.36,2.261,2.261,0,0,0,.531-1.379,2.823,2.823,0,0,0-.064-1.58C795.86,833,795.641,833.608,794.982,834.435Z" transform="translate(-460.122 -496.907)" fill="#fbbebe"/>
    <path id="Path_120" data-name="Path 120" d="M800.38,840.041a1.041,1.041,0,0,1-.073.475c-.2.394-.762.373-1.2.287a28.824,28.824,0,0,0-.527-4.325c-.831-.039-1.43.749-1.876,1.456l-1.148,1.82a2.372,2.372,0,0,1-.685.8,2.029,2.029,0,0,1-.741.236c-2.193.364-4.407-.326-6.522-1.011a3.455,3.455,0,0,1-.886-.377,1.811,1.811,0,0,1-.428-2.475c.886-1.2,2.878-.857,3.983-1.85a9.967,9.967,0,0,1-.565,2.043c1.478-.223,2.471-1.576,3.662-2.48a2.253,2.253,0,0,1,1.045-.5,2.3,2.3,0,0,1,.856.09,10.047,10.047,0,0,1,3.769,1.854,4.062,4.062,0,0,1,1.349,1.4A10.4,10.4,0,0,1,800.38,840.041Z" transform="translate(-456.621 -497.236)" fill="#3f3d56"/>
    <circle id="Ellipse_21" data-name="Ellipse 21" cx="8.848" cy="8.848" r="8.848" transform="translate(364.371 183.809)" fill="#fbbebe"/>
    <path id="Path_121" data-name="Path 121" d="M916.842,615.587a20.983,20.983,0,0,1-.715,5.006,51.679,51.679,0,0,1-1.619,6,13.2,13.2,0,0,0-1.143,4.368,2.9,2.9,0,0,1-.283,1.824,2.663,2.663,0,0,1-1.25.715,1.563,1.563,0,0,0-1.053.938,6.616,6.616,0,0,1-.891-1.961q-1.152-3.529-2.141-7.1a.921.921,0,0,1,.06-.857,1.062,1.062,0,0,1,.373-.21,3.854,3.854,0,0,0,1.186-.762,1.734,1.734,0,0,0,.394-.51,2.308,2.308,0,0,0,.167-.968c0-1.135,0-2.265-.03-3.4a28.426,28.426,0,0,1,.12-3.139c0-.206.039-.535.073-.887.064-.672.193-1.452.557-1.713.544-.364,2.171.124,2.788.21,1.062.146,2.141.317,3.178.518A8.484,8.484,0,0,1,916.842,615.587Z" transform="translate(-526.193 -370.691)" fill="#3f3d56"/>
    <path id="Path_122" data-name="Path 122" d="M832.734,508.627c-.343.685-1.165,1.015-1.8,1.448l-2.171,1.49a1.448,1.448,0,0,1-1.075.368,1.413,1.413,0,0,1-.8-.749.143.143,0,0,0,0-.034l-.45-.754-2.141-3.589a2.043,2.043,0,0,1-.4-1.1c0-.184.064-.355.081-.54a2.591,2.591,0,0,0-.428-1.456c-.171-.321-.514-.587-.505-.946a3.426,3.426,0,0,1,.24-1.383,2.8,2.8,0,0,1,.938-1c.2-.146.407-.283.621-.428a1.224,1.224,0,0,1,.373-.171c.355-.073.707.223,1.066.236,1.546,1.036,2.141,3,3.358,4.411.685.805.754,1.422,1.529,2.141.124.111.244.231.36.355a2.49,2.49,0,0,1,.385.557C832.058,507.843,832.91,508.276,832.734,508.627Z" transform="translate(-477.811 -306.064)" fill="#3f3d56"/>
    <path id="Path_123" data-name="Path 123" d="M875.805,509.307a7.973,7.973,0,0,1,.951,4.313,2.7,2.7,0,0,1-.373,1.135c-.617.946-1.91,1.118-3.036,1.173a1.79,1.79,0,0,0-1.319.428,1.2,1.2,0,0,0,.081,1.465,3.306,3.306,0,0,0,1.31.857,11.6,11.6,0,0,0,5.64,1.25c.9-.086,1.773-.347,2.668-.48a28.019,28.019,0,0,1,2.938-.163c1.165-.043,2.326-.158,3.486-.274l3.075-.3a.685.685,0,0,0,.458-.167c.227-.266-.064-.655-.347-.857-1.632-1.208-3.709-2.039-4.638-3.854a22.692,22.692,0,0,1-.878-2.8,23.544,23.544,0,0,1-1.019-2.7,17.9,17.9,0,0,1-.141-2.492,3.345,3.345,0,0,0-.856-2.278,3.571,3.571,0,0,0-2.33-.749,7.542,7.542,0,0,0-5.679,1.842c-.39.39-.724.857-1.126,1.208s-.951.454-.685.916.788.749,1.071,1.156A9.843,9.843,0,0,1,875.805,509.307Z" transform="translate(-505.696 -307.798)" fill="#fbbebe"/>
    <path id="Path_124" data-name="Path 124" d="M880.87,532.393a48.665,48.665,0,0,1-2.621,9.649,36.324,36.324,0,0,0-1.542,4.325c-.33,1.328-.266,2.749-.57,4.081-.377,1.657-.754,3.319-1.058,4.989a32.712,32.712,0,0,0-.608,7.752,3.242,3.242,0,0,0,.231,1.195c.141.308.368.574.5.891a2.141,2.141,0,0,1-.12,1.713,4.962,4.962,0,0,1-.882,1.336c-3.991,1.19-8.261.8-12.419,1.053-3.833.231-7.709,1.019-11.486.364-.428-1.713.287-3.507.9-5.178,1.777-4.852,3.743-9.906,3.426-14.989a15.519,15.519,0,0,0-.2-1.769,23.446,23.446,0,0,1,1.139-10.822,18.575,18.575,0,0,0,.488-6.758,12.346,12.346,0,0,1-.03-2.214,3.893,3.893,0,0,1,.805-2.068c0-.03.039-.06.06-.09a.587.587,0,0,1,.321,0h0a.275.275,0,0,0,.214,0l.047-.03a.107.107,0,0,1,.124,0c.1.06.154.266.368.3a8.546,8.546,0,0,0,.955.09,5.138,5.138,0,0,1,1.139.163h.051a3.344,3.344,0,0,0,1.662-.141,4.419,4.419,0,0,0,1.019-.394c.094-.1.685-.2.805-.27.39-.236.3-1.341.385-1.794a4.933,4.933,0,0,1,.321-1.328,2.261,2.261,0,0,1,1.833-1.066,9.761,9.761,0,0,1,2.2.2c1.6.227,3.233.188,4.8.557a3.576,3.576,0,0,0,2.372.1c.2.047.227.218.227.428a2.738,2.738,0,0,1-.12.587c-.274,1.182.655,2.27,1.512,3.126a4.846,4.846,0,0,0,1.263,1.006c.428.2.857.278,1.285.493a2.337,2.337,0,0,1,.856.784,3.271,3.271,0,0,1,.488,1.246,7.454,7.454,0,0,1-.141,2.48Z" transform="translate(-493.317 -318.425)" fill="#3f3d56"/>
    <path id="Path_125" data-name="Path 125" d="M886.25,538.291a48.664,48.664,0,0,1-2.621,9.649,36.339,36.339,0,0,0-1.542,4.325c-.33,1.328-.266,2.749-.57,4.081-.377,1.657-.754,3.319-1.058,4.989-.09.051-.184.1-.278.141a6.574,6.574,0,0,1-1.679.54,10.279,10.279,0,0,1-3.135-.1l-6.111-.818c-2.441-.33-5.041-.728-6.852-2.381a14.618,14.618,0,0,1-2.39-3.263,15.545,15.545,0,0,0-.2-1.769,23.446,23.446,0,0,1,1.139-10.822,18.572,18.572,0,0,0,.488-6.758,12.341,12.341,0,0,1-.03-2.214,3.893,3.893,0,0,1,.805-2.068,3.056,3.056,0,0,1,.381-.086h0a1.9,1.9,0,0,1,.261-.034h.124a1.863,1.863,0,0,1,.428.051,7.749,7.749,0,0,1,.857.33h.051a3.279,3.279,0,0,0,1.139.163c.565,0,1.148-.09,1.713-.128a3.161,3.161,0,0,1,2.03.364,12.181,12.181,0,0,1,1.131,1.032,4.857,4.857,0,0,0,1.426.775,15.157,15.157,0,0,0,11.4-.24,2.23,2.23,0,0,1,1.143-.291,2.142,2.142,0,0,1,.822.351c.257.15.51.3.771.428a3.272,3.272,0,0,1,.488,1.246A7.453,7.453,0,0,1,886.25,538.291Z" transform="translate(-498.698 -324.324)" opacity="0.1"/>
    <path id="Path_126" data-name="Path 126" d="M885.042,534.359a22.862,22.862,0,0,1-4.882-2.141,2.187,2.187,0,0,0-.822-.351,2.3,2.3,0,0,0-1.148.291,15.148,15.148,0,0,1-11.4.24,4.953,4.953,0,0,1-1.426-.775,12.835,12.835,0,0,0-1.131-1.032c-1.409-.912-3.358.158-4.934-.428a8.72,8.72,0,0,0-.857-.33c-1.246-.313-2.514.929-3.739.552a20.843,20.843,0,0,0-1.006,3.82,41.625,41.625,0,0,0-.278,4.505c0,.9-.043,1.807,0,2.711a.889.889,0,0,1,.677,1.4,35.109,35.109,0,0,1-3.161,6.685,14.53,14.53,0,0,1,2.647,2.021c1.5,1.585,2.235,3.807,3.854,5.272,1.824,1.649,4.424,2.051,6.852,2.377L870.4,560a10.447,10.447,0,0,0,3.139.107,6.607,6.607,0,0,0,1.675-.544,3,3,0,0,0,.934-.617,3.427,3.427,0,0,0,.552-.857c.484-.968.925-1.957,1.332-2.959.141-.355.355-.771.741-.8,2.27-2.047,4.411-4.146,6.681-6.193a14.811,14.811,0,0,0,2.437-2.57c1.126-1.666.1-4.026,0-6.038A7.623,7.623,0,0,0,887.7,538C887.333,536.538,886.468,534.791,885.042,534.359Z" transform="translate(-493.76 -323.226)" fill="#fff"/>
    <path id="Path_127" data-name="Path 127" d="M837.861,518.074c-.343.685-1.165,1.015-1.8,1.448l-2.171,1.49a1.448,1.448,0,0,1-1.075.368,1.413,1.413,0,0,1-.8-.749v-.308a2.869,2.869,0,0,1,.137-1.023,3.189,3.189,0,0,1,.959-1.233,7.852,7.852,0,0,1,2.814-1.713.963.963,0,0,1,.514-.051.678.678,0,0,1,.188.081,2.487,2.487,0,0,1,.385.557C837.185,517.29,838.037,517.723,837.861,518.074Z" transform="translate(-482.938 -315.511)" opacity="0.1"/>
    <path id="Path_128" data-name="Path 128" d="M843.683,522.958a3.12,3.12,0,0,1-1.854-1.062l-1.623-1.507a1.518,1.518,0,0,1-.283-.317,2.228,2.228,0,0,1-.2-.527,6.042,6.042,0,0,0-1.576-2.261,1.028,1.028,0,0,0-.467-.334.938.938,0,0,0-.518.051,7.832,7.832,0,0,0-2.814,1.713,3.2,3.2,0,0,0-.959,1.233,2.849,2.849,0,0,0-.137,1.024,7.863,7.863,0,0,0,.745,3.272c.073.158.154.317.24.471a14.837,14.837,0,0,0,2.013,2.617l1.019,1.139c1,1.122,2,2.244,3.092,3.276a4.085,4.085,0,0,0,1.388.968,1.55,1.55,0,0,0,1.593-.257,2.3,2.3,0,0,0,.454-.814,16.019,16.019,0,0,0,1.323-5.34,20.164,20.164,0,0,0-.094-2.214C844.964,523.309,844.411,523,843.683,522.958Z" transform="translate(-483.647 -315.881)" fill="#f0a208"/>
    <path id="Path_129" data-name="Path 129" d="M849.578,644.653a98.939,98.939,0,0,1-.917,12.878c-.086.689-.18,1.379-.227,2.068-.141,2,.09,4.008-.1,6-.1,1.075-.321,2.141-.51,3.191a56.736,56.736,0,0,0-.728,14.2c.591,7.893-1.22,15.79-.4,23.661a19.127,19.127,0,0,1-.253,4.578,19.4,19.4,0,0,1-.664,2.767q-.938,3.216-1.884,6.424a2.227,2.227,0,0,1-.428.891,2.03,2.03,0,0,1-1.606.475,18.527,18.527,0,0,1-7.041-2.184,2.458,2.458,0,0,1-.707-.428c-.467-.484-.428-1.246-.634-1.884a17.929,17.929,0,0,0-1.079-1.893,6.182,6.182,0,0,1-.467-1.948q-.428-3.289-.582-6.6c-.163-3.109,1.893-5.97,2.569-8.994,1.285-5.944.2-12.317,2.48-17.957.72-1.781-.326-3.94-.428-5.859a18.578,18.578,0,0,0-.48-3.674c-.428-1.61-1.332-3.126-1.4-4.8a17.617,17.617,0,0,1,.544-3.576,16.074,16.074,0,0,0-.073-5.28c-.227-1.439-.574-2.878-.921-4.282l-.077.158a48.388,48.388,0,0,0-2.685,6.317c-.343,1.049-.642,2.12-1.071,3.139-.351.856-.784,1.64-1.208,2.445a70.222,70.222,0,0,0-3.961,8.8c-.531,1.482-1,3-1.46,4.484l-3.173,10.278c-.857,2.7-1.794,5.315-2.634,8.013-1.186,3.854-2.373,7.674-3.752,11.443-1.285,3.576-2.814,7.28-2.355,11.058a8.137,8.137,0,0,1-3.781.767,22.14,22.14,0,0,1-6.424-1.559,4.994,4.994,0,0,1-2.218-1.319c-.951-1.161-.715-2.861-.428-4.338a10.474,10.474,0,0,1,.514-1.953c.326-.788.857-1.486,1.191-2.265a19,19,0,0,0,.981-4.809,5.934,5.934,0,0,1,2.244-4.218c.235-2.852,1.409-5.666,2.056-8.454.488-2.111.651-4.283,1.036-6.424a14.109,14.109,0,0,1,2.3-6.017,9.537,9.537,0,0,1,1.165-5.139,5.619,5.619,0,0,0,.51-1.092,6.281,6.281,0,0,0,.137-1.131,6.685,6.685,0,0,1,1.807-3.97c-.428-1.563.167-3.195.7-4.711a16.37,16.37,0,0,0,.9-6.026,5.28,5.28,0,0,1,.081-1.713c.12-.428.355-.792.492-1.2a6.852,6.852,0,0,0,.193-1.537,17.781,17.781,0,0,1,2.141-6.57c.617-1.208.094-2.848.223-4.193a16.207,16.207,0,0,1,1.576-6.5c.206-.368.428-.719.612-1.1a4.764,4.764,0,0,0,.356-1.713,6.307,6.307,0,0,0-.176-2.707c2.291-1.906,5.417-2.441,8.4-2.57s6,.141,8.912-.492c.857-.193,1.713-.458,2.617-.587a16.928,16.928,0,0,1,6.158.63,7.335,7.335,0,0,0,.857,3.713,39.856,39.856,0,0,1,3.173,15.3Z" transform="translate(-463.589 -377.621)" fill="#33313f"/>
    <path id="Path_130" data-name="Path 130" d="M886.759,673.29l-4.921,11.066c-.227-1.439-.574-2.878-.921-4.283l-.077.158V680l2.681-5.9Z" transform="translate(-510.855 -405.277)" opacity="0.1"/>
    <path id="Path_131" data-name="Path 131" d="M920.034,615.587a1.85,1.85,0,0,1-.976.364,4.748,4.748,0,0,1-1.6-.218l-3.854-.964a1.9,1.9,0,0,1-.351-.124c.064-.672.193-1.452.557-1.713.544-.364,2.171.124,2.788.21,1.062.146,2.141.317,3.178.518a8.485,8.485,0,0,1,.261,1.927Z" transform="translate(-529.385 -370.691)" opacity="0.1"/>
    <path id="Path_132" data-name="Path 132" d="M922.759,557.985c.081.355.2.707.266,1.066a8.135,8.135,0,0,1-.09,2.651l-.351,2.45-.351,2.463-1.358,9.477-.334,2.347-.471,3.276a2.354,2.354,0,0,1-.206.788,1.64,1.64,0,0,1-1.34.792,4.856,4.856,0,0,1-1.6-.218l-3.854-.968a1.209,1.209,0,0,1-.471-.193.929.929,0,0,1-.248-.9c.056-.326.2-.63.244-.955.094-.634-.171-1.285-.077-1.914a4.763,4.763,0,0,1,.428-1.152c1.285-2.839.54-6.154.976-9.237a14,14,0,0,1,2.972-6.612,18.978,18.978,0,0,1,3.28-3.221,6.6,6.6,0,0,1,1.846-1.285C922.793,556.473,922.631,557.445,922.759,557.985Z" transform="translate(-528.852 -338.57)" fill="#f0a208"/>
    <path id="Path_133" data-name="Path 133" d="M863.256,470.768c-.283.9.158,1.889-.043,2.805-.218,1.011-1.169,1.713-1.439,2.728-.428,1.546.882,2.955,1.841,4.24,3.555,4.771,3.088,11.375,1.871,17.195a88.787,88.787,0,0,1-4.047,13.7,10.5,10.5,0,0,1-2.18,3.824c1.97-.565,4.064-1.135,6.038-.587,2.5.694,4.659,3.122,7.195,2.569,1.525-.338,2.6-1.692,3.966-2.441,2.57-1.383,5.666-.514,8.531-.069a3.349,3.349,0,0,0,1.863-.094,3.1,3.1,0,0,0,1.131-1.041,10.561,10.561,0,0,0,2.2-5.7,7.306,7.306,0,0,0-2.1-5.623,12.028,12.028,0,0,1-1.8-1.713,5.32,5.32,0,0,1-.707-2.6c-.338-4.711.809-9.52-.373-14.077a34.753,34.753,0,0,1-1.315-4.839c-.236-2.068.326-4.283-.5-6.175a6.056,6.056,0,0,0-3.61-3.118,19.778,19.778,0,0,0-4.814-.857C872.617,468.712,864.236,467.706,863.256,470.768Z" transform="translate(-498.517 -288.243)" fill="#33313f"/>
    <g id="Group_4" data-name="Group 4" transform="translate(360.743 181.544)" opacity="0.1">
      <path id="Path_134" data-name="Path 134" d="M868.426,506.235a88.621,88.621,0,0,1-4.026,13.649c.3-.587.544-1.2.779-1.816a88.323,88.323,0,0,0,4.047-13.7c1.221-5.824,1.687-12.419-1.867-17.195-.856-1.139-1.957-2.373-1.919-3.709a4.563,4.563,0,0,0-.728,1.345c-.428,1.546.882,2.955,1.841,4.24C870.109,493.811,869.642,500.415,868.426,506.235Z" transform="translate(-862.199 -478.287)"/>
      <path id="Path_135" data-name="Path 135" d="M868.46,474.733a4.164,4.164,0,0,0,.754-1.443,7.337,7.337,0,0,0-.051-1.91,2.059,2.059,0,0,0-.711.981A8.473,8.473,0,0,0,868.46,474.733Z" transform="translate(-864.456 -471.38)"/>
      <path id="Path_136" data-name="Path 136" d="M888.788,567.283a3.084,3.084,0,0,1-1.131,1.036,3.272,3.272,0,0,1-1.863.094c-2.865-.428-6-1.31-8.531.073-1.375.745-2.441,2.1-3.97,2.441-2.531.565-4.689-1.863-7.19-2.57a10.04,10.04,0,0,0-5.426.428,7.481,7.481,0,0,1-1.418,2.047c1.97-.565,4.064-1.135,6.038-.587,2.5.694,4.659,3.122,7.195,2.57,1.525-.338,2.6-1.692,3.966-2.441,2.57-1.383,5.666-.514,8.531-.068a3.349,3.349,0,0,0,1.863-.094,3.1,3.1,0,0,0,1.131-1.041,11.512,11.512,0,0,0,1.773-3.392,12.46,12.46,0,0,1-.968,1.5Z" transform="translate(-859.26 -525.352)"/>
    </g>
  </g>
</svg>
